# xmcd
#
# Track frame offsets: 
#        150
#        15759
#        29000
#        47934
#        61262
#        74300
#        104642
#        119796
#        135524
#        153329
#        174394
#
# Disc length: 2591 seconds
#
# Revision: 1
# Processed by: cddbd v1.5.1PL0 Copyright (c) Steve Scherf et al.
# Submitted via: ExactAudioCopy v0.95a5
#
DISCID=960a1d0b
DTITLE=A. C. Littlefield and The Original Bells Of Joy - Second Time Aro
DTITLE=und
DYEAR=1999
DGENRE=Gospel
TTITLE0=Done What The Doctor Could Not Do
TTITLE1=Let's Talk About Jesus
TTITLE2=In The Morning
TTITLE3=He Said
TTITLE4=Search Me Lord
TTITLE5=Down At the Cross
TTITLE6=Working for Jesus
TTITLE7=Separation Line
TTITLE8=Watch, Fight and Pray
TTITLE9=If I perish
TTITLE10=God Is Real
EXTD=
EXTT0=
EXTT1=
EXTT2=
EXTT3=
EXTT4=
EXTT5=
EXTT6=
EXTT7=
EXTT8=
EXTT9=
EXTT10=
PLAYORDER=
